<svg width="40" height="40" viewBox="0 0 40 40" fill="none" xmlns="http://www.w3.org/2000/svg">
<path d="M21.4099 20L25.7099 15.71C25.8982 15.5217 26.004 15.2663 26.004 15C26.004 14.7337 25.8982 14.4783 25.7099 14.29C25.5216 14.1017 25.2662 13.9959 24.9999 13.9959C24.7336 13.9959 24.4782 14.1017 24.2899 14.29L19.9999 18.59L15.7099 14.29C15.5216 14.1017 15.2662 13.9959 14.9999 13.9959C14.7336 13.9959 14.4782 14.1017 14.2899 14.29C14.1016 14.4783 13.9958 14.7337 13.9958 15C13.9958 15.2663 14.1016 15.5217 14.2899 15.71L18.5899 20L14.2899 24.29C14.1962 24.383 14.1218 24.4936 14.071 24.6154C14.0203 24.7373 13.9941 24.868 13.9941 25C13.9941 25.132 14.0203 25.2627 14.071 25.3846C14.1218 25.5064 14.1962 25.617 14.2899 25.71C14.3829 25.8037 14.4935 25.8781 14.6154 25.9289C14.7372 25.9797 14.8679 26.0058 14.9999 26.0058C15.132 26.0058 15.2627 25.9797 15.3845 25.9289C15.5064 25.8781 15.617 25.8037 15.7099 25.71L19.9999 21.41L24.2899 25.71C24.3829 25.8037 24.4935 25.8781 24.6154 25.9289C24.7372 25.9797 24.8679 26.0058 24.9999 26.0058C25.132 26.0058 25.2627 25.9797 25.3845 25.9289C25.5064 25.8781 25.617 25.8037 25.7099 25.71C25.8037 25.617 25.8781 25.5064 25.9288 25.3846C25.9796 25.2627 26.0057 25.132 26.0057 25C26.0057 24.868 25.9796 24.7373 25.9288 24.6154C25.8781 24.4936 25.8037 24.383 25.7099 24.29L21.4099 20Z" fill="#006A7A"/>
</svg>
